%TF.GenerationSoftware,KiCad,Pcbnew,10.0.3*%
%TF.CreationDate,2026-08-19T14:00:13-05:00*%
%TF.ProjectId,led_board,6c65645f-626f-4617-9264-2e6b69636164,rev?*%
%TF.SameCoordinates,Original*%
%TF.FileFunction,Plated,1,4,PTH,Drill*%
%TF.FilePolarity,Positive*%
%FSLAX46Y46*%
G04 Gerber Fmt 4.6, Leading zero omitted, Abs format (unit mm)*
G04 Created by KiCad (PCBNEW 10.0.3) date 2026-08-19 14:00:13*
%MOMM*%
%LPD*%
G01*
G04 APERTURE LIST*
%TA.AperFunction,ViaDrill*%
%ADD10C,0.200000*%
%TD*%
%TA.AperFunction,ViaDrill*%
%ADD11C,0.300000*%
%TD*%
%TA.AperFunction,ComponentDrill*%
%ADD12C,1.140000*%
%TD*%
%TA.AperFunction,ComponentDrill*%
%ADD13C,3.500000*%
%TD*%
G04 APERTURE END LIST*
D10*
X124555000Y-40320000D03*
X124555000Y-42479000D03*
X125810000Y-40300000D03*
X125810000Y-42500000D03*
X125825000Y-43749000D03*
X125825000Y-45019000D03*
X125825000Y-46289000D03*
X125825000Y-47559000D03*
X127080000Y-40300000D03*
X127080000Y-42500000D03*
X127095000Y-43749000D03*
X127095000Y-45019000D03*
X127095000Y-46289000D03*
X127095000Y-47559000D03*
X128350000Y-40300000D03*
X128350000Y-42500000D03*
X128365000Y-43749000D03*
X128365000Y-45019000D03*
X128365000Y-46289000D03*
X128365000Y-47559000D03*
X129620000Y-40300000D03*
X129620000Y-42500000D03*
X129635000Y-43749000D03*
X129635000Y-45019000D03*
X129635000Y-46289000D03*
X129635000Y-47559000D03*
X130890000Y-40300000D03*
X130890000Y-42500000D03*
X130905000Y-43749000D03*
X130905000Y-45019000D03*
X130905000Y-46289000D03*
X130905000Y-47559000D03*
X132160000Y-40300000D03*
X132160000Y-42500000D03*
X132175000Y-43749000D03*
X132175000Y-45019000D03*
X132175000Y-46289000D03*
X132175000Y-47559000D03*
X133430000Y-40300000D03*
X133430000Y-42500000D03*
X133445000Y-43749000D03*
X133445000Y-45019000D03*
X133445000Y-46289000D03*
X133445000Y-47559000D03*
X134700000Y-40300000D03*
X134700000Y-42500000D03*
X134715000Y-43749000D03*
X134715000Y-45019000D03*
X134715000Y-46289000D03*
X134715000Y-47559000D03*
X135970000Y-40300000D03*
X135970000Y-42500000D03*
X135985000Y-43749000D03*
X135985000Y-45019000D03*
X135985000Y-46289000D03*
X135985000Y-47559000D03*
X137240000Y-40300000D03*
X137240000Y-42500000D03*
X137255000Y-43749000D03*
X137255000Y-45019000D03*
X137255000Y-46289000D03*
X137255000Y-47559000D03*
X138510000Y-40300000D03*
X138510000Y-42500000D03*
X138525000Y-43749000D03*
X138525000Y-45019000D03*
X138525000Y-46289000D03*
X138525000Y-47559000D03*
X139780000Y-40300000D03*
X139780000Y-42500000D03*
X139795000Y-43749000D03*
X139795000Y-45019000D03*
X139795000Y-46289000D03*
X139795000Y-47559000D03*
X141050000Y-40300000D03*
X141050000Y-42500000D03*
X141065000Y-43749000D03*
X141065000Y-45019000D03*
X141065000Y-46289000D03*
X141065000Y-47559000D03*
X142320000Y-40300000D03*
X142320000Y-42500000D03*
X142335000Y-43749000D03*
X142335000Y-45019000D03*
X142335000Y-46289000D03*
X142335000Y-47559000D03*
X143590000Y-40300000D03*
X143590000Y-42500000D03*
X143605000Y-43749000D03*
X143605000Y-45019000D03*
X143605000Y-46289000D03*
X143605000Y-47559000D03*
X144860000Y-40300000D03*
X144860000Y-42500000D03*
X144875000Y-43749000D03*
X144875000Y-45019000D03*
X144875000Y-46289000D03*
X144875000Y-47559000D03*
X146130000Y-40300000D03*
X146130000Y-42500000D03*
X146145000Y-43749000D03*
X146145000Y-45019000D03*
X146145000Y-46289000D03*
X146145000Y-47559000D03*
X147400000Y-40300000D03*
X147400000Y-42500000D03*
X147415000Y-43749000D03*
X147415000Y-45019000D03*
X147415000Y-46289000D03*
X147415000Y-47559000D03*
X148670000Y-40300000D03*
X148670000Y-42500000D03*
X148685000Y-43749000D03*
X148685000Y-45019000D03*
X148685000Y-46289000D03*
X148685000Y-47559000D03*
X149940000Y-40300000D03*
X149940000Y-42500000D03*
X149955000Y-43749000D03*
X149955000Y-45019000D03*
X149955000Y-46289000D03*
X149955000Y-47559000D03*
X151210000Y-40300000D03*
X151210000Y-42500000D03*
X151225000Y-43749000D03*
X151225000Y-45019000D03*
X151225000Y-46289000D03*
X151225000Y-47559000D03*
X152480000Y-40300000D03*
X152480000Y-42500000D03*
X152495000Y-43749000D03*
X152495000Y-45019000D03*
X152495000Y-46289000D03*
X152495000Y-47559000D03*
X153750000Y-40300000D03*
X153750000Y-42500000D03*
X153765000Y-43749000D03*
X153765000Y-45019000D03*
X153765000Y-46289000D03*
X153765000Y-47559000D03*
X155020000Y-40300000D03*
X155020000Y-42500000D03*
X155035000Y-43749000D03*
X155035000Y-45019000D03*
X155035000Y-46289000D03*
X155035000Y-47559000D03*
X156290000Y-40300000D03*
X156290000Y-42500000D03*
X156305000Y-43749000D03*
X156305000Y-45019000D03*
X156305000Y-46289000D03*
X156305000Y-47559000D03*
X157560000Y-40300000D03*
X157560000Y-42500000D03*
X157575000Y-43749000D03*
X157575000Y-45019000D03*
X157575000Y-46289000D03*
X157575000Y-47559000D03*
X158830000Y-40300000D03*
X158830000Y-42500000D03*
X158845000Y-43749000D03*
X158845000Y-45019000D03*
X158845000Y-46289000D03*
X158845000Y-47559000D03*
X160100000Y-40300000D03*
X160100000Y-42500000D03*
X160115000Y-43749000D03*
X160115000Y-45019000D03*
X160115000Y-46289000D03*
X160115000Y-47559000D03*
X161370000Y-40300000D03*
X161370000Y-42500000D03*
X161385000Y-43749000D03*
X161385000Y-45019000D03*
X161385000Y-46289000D03*
X161385000Y-47559000D03*
X162640000Y-40300000D03*
X162640000Y-42500000D03*
X162655000Y-43749000D03*
X162655000Y-45019000D03*
X162655000Y-46289000D03*
X162655000Y-47559000D03*
X163910000Y-40300000D03*
X163910000Y-42500000D03*
X163925000Y-43749000D03*
X163925000Y-45019000D03*
X163925000Y-46289000D03*
X163925000Y-47559000D03*
X165180000Y-40300000D03*
X165180000Y-42500000D03*
X165195000Y-43749000D03*
X165195000Y-45019000D03*
X165195000Y-46289000D03*
X165195000Y-47559000D03*
X166450000Y-40300000D03*
X166450000Y-42500000D03*
X166465000Y-43749000D03*
X166465000Y-45019000D03*
X166465000Y-46289000D03*
X166465000Y-47559000D03*
X167720000Y-40300000D03*
X167720000Y-42500000D03*
X167735000Y-43749000D03*
X167735000Y-45019000D03*
X167735000Y-46289000D03*
X167735000Y-47559000D03*
X168990000Y-40300000D03*
X168990000Y-42500000D03*
X169005000Y-43749000D03*
X169005000Y-45019000D03*
X169005000Y-46289000D03*
X169005000Y-47559000D03*
X170260000Y-40300000D03*
X170260000Y-42500000D03*
X170275000Y-43749000D03*
X170275000Y-45019000D03*
X170275000Y-46289000D03*
X170275000Y-47559000D03*
X171530000Y-40300000D03*
X171530000Y-42500000D03*
X171545000Y-43749000D03*
X171545000Y-45019000D03*
X171545000Y-46289000D03*
X171545000Y-47559000D03*
X172800000Y-40300000D03*
X172800000Y-42500000D03*
X172815000Y-43749000D03*
X172815000Y-45019000D03*
X172815000Y-46289000D03*
X172815000Y-47559000D03*
X174070000Y-40300000D03*
X174070000Y-42500000D03*
X174085000Y-43749000D03*
X174085000Y-45019000D03*
X174085000Y-46289000D03*
X174085000Y-47559000D03*
X175340000Y-40300000D03*
X175340000Y-42500000D03*
X175355000Y-43749000D03*
X175355000Y-45019000D03*
X175355000Y-46289000D03*
X175355000Y-47559000D03*
X176610000Y-40300000D03*
X176610000Y-42500000D03*
X176625000Y-43749000D03*
X176625000Y-45019000D03*
X176625000Y-46289000D03*
X176625000Y-47559000D03*
X177880000Y-40300000D03*
X177880000Y-42500000D03*
X177895000Y-43749000D03*
X177895000Y-45019000D03*
X177895000Y-46289000D03*
X177895000Y-47559000D03*
X179150000Y-40300000D03*
X179150000Y-42500000D03*
X179165000Y-43749000D03*
X179165000Y-45019000D03*
X179165000Y-46289000D03*
X179165000Y-47559000D03*
X180420000Y-40300000D03*
X180420000Y-42500000D03*
X180435000Y-43749000D03*
X180435000Y-45019000D03*
X180435000Y-46289000D03*
X180435000Y-47559000D03*
X181690000Y-40300000D03*
X181690000Y-42500000D03*
X181705000Y-43749000D03*
X181705000Y-45019000D03*
X181705000Y-46289000D03*
X181705000Y-47559000D03*
X182960000Y-40300000D03*
X182960000Y-42500000D03*
X182975000Y-43749000D03*
X182975000Y-45019000D03*
X182975000Y-46289000D03*
X182975000Y-47559000D03*
X184230000Y-40300000D03*
X184230000Y-42500000D03*
X184245000Y-43749000D03*
X184245000Y-45019000D03*
X184245000Y-46289000D03*
X184245000Y-47559000D03*
X185500000Y-40300000D03*
X185500000Y-42500000D03*
X185515000Y-43749000D03*
X185515000Y-45019000D03*
X185515000Y-46289000D03*
X185515000Y-47559000D03*
X186785000Y-40320000D03*
X186785000Y-42479000D03*
D11*
X105000000Y-81700000D03*
X105000000Y-84000000D03*
X105000000Y-90700000D03*
X105000000Y-93000000D03*
X105000000Y-99700000D03*
X105000000Y-102000000D03*
X105000000Y-108700000D03*
X105000000Y-111000000D03*
X105000000Y-117700000D03*
X105000000Y-120000000D03*
X105000000Y-126700000D03*
X105000000Y-129000000D03*
X105000000Y-135700000D03*
X105000000Y-138000000D03*
X105000000Y-144700000D03*
X105000000Y-147000000D03*
X108000000Y-79690000D03*
X108000000Y-81710000D03*
X108000000Y-88690000D03*
X108000000Y-90710000D03*
X108000000Y-97690000D03*
X108000000Y-99710000D03*
X108000000Y-106690000D03*
X108000000Y-108710000D03*
X108000000Y-115690000D03*
X108000000Y-117710000D03*
X108000000Y-124690000D03*
X108000000Y-126710000D03*
X108000000Y-133690000D03*
X108000000Y-135710000D03*
X108000000Y-142690000D03*
X108000000Y-144710000D03*
X114000000Y-81700000D03*
X114000000Y-84000000D03*
X114000000Y-90700000D03*
X114000000Y-93000000D03*
X114000000Y-99700000D03*
X114000000Y-102000000D03*
X114000000Y-108700000D03*
X114000000Y-111000000D03*
X114000000Y-117700000D03*
X114000000Y-120000000D03*
X114000000Y-126700000D03*
X114000000Y-129000000D03*
X114000000Y-135700000D03*
X114000000Y-138000000D03*
X114000000Y-144700000D03*
X114000000Y-147000000D03*
X117000000Y-79690000D03*
X117000000Y-81800000D03*
X117000000Y-88690000D03*
X117000000Y-90800000D03*
X117000000Y-97690000D03*
X117000000Y-99800000D03*
X117000000Y-106690000D03*
X117000000Y-108800000D03*
X117000000Y-115690000D03*
X117000000Y-117800000D03*
X117000000Y-124690000D03*
X117000000Y-126800000D03*
X117000000Y-133690000D03*
X117000000Y-135800000D03*
X117000000Y-142690000D03*
X117000000Y-144800000D03*
X123000000Y-81700000D03*
X123000000Y-84000000D03*
X123000000Y-90700000D03*
X123000000Y-93000000D03*
X123000000Y-99700000D03*
X123000000Y-102000000D03*
X123000000Y-108700000D03*
X123000000Y-111000000D03*
X123000000Y-117700000D03*
X123000000Y-120000000D03*
X123000000Y-126700000D03*
X123000000Y-129000000D03*
X123000000Y-135700000D03*
X123000000Y-138000000D03*
X123000000Y-144700000D03*
X123000000Y-147000000D03*
X126000000Y-79690000D03*
X126000000Y-81800000D03*
X126000000Y-88690000D03*
X126000000Y-90800000D03*
X126000000Y-97690000D03*
X126000000Y-99800000D03*
X126000000Y-106690000D03*
X126000000Y-108800000D03*
X126000000Y-115690000D03*
X126000000Y-117800000D03*
X126000000Y-124690000D03*
X126000000Y-126800000D03*
X126000000Y-133690000D03*
X126000000Y-135800000D03*
X126000000Y-142690000D03*
X126000000Y-144800000D03*
X132000000Y-81700000D03*
X132000000Y-84000000D03*
X132000000Y-90700000D03*
X132000000Y-93000000D03*
X132000000Y-99700000D03*
X132000000Y-102000000D03*
X132000000Y-108700000D03*
X132000000Y-111000000D03*
X132000000Y-117700000D03*
X132000000Y-120000000D03*
X132000000Y-126700000D03*
X132000000Y-129000000D03*
X132000000Y-135700000D03*
X132000000Y-138000000D03*
X132000000Y-144700000D03*
X132000000Y-147000000D03*
X135000000Y-79690000D03*
X135000000Y-81800000D03*
X135000000Y-88690000D03*
X135000000Y-90800000D03*
X135000000Y-97690000D03*
X135000000Y-99800000D03*
X135000000Y-106690000D03*
X135000000Y-108800000D03*
X135000000Y-115690000D03*
X135000000Y-117800000D03*
X135000000Y-124690000D03*
X135000000Y-126800000D03*
X135000000Y-133690000D03*
X135000000Y-135800000D03*
X135000000Y-142690000D03*
X135000000Y-144800000D03*
X141000000Y-81700000D03*
X141000000Y-84000000D03*
X141000000Y-90700000D03*
X141000000Y-93000000D03*
X141000000Y-99700000D03*
X141000000Y-102000000D03*
X141000000Y-108700000D03*
X141000000Y-111000000D03*
X141000000Y-117700000D03*
X141000000Y-120000000D03*
X141000000Y-126700000D03*
X141000000Y-129000000D03*
X141000000Y-135700000D03*
X141000000Y-138000000D03*
X141000000Y-144700000D03*
X141000000Y-147000000D03*
X144000000Y-79690000D03*
X144000000Y-81800000D03*
X144000000Y-88690000D03*
X144000000Y-90800000D03*
X144000000Y-97690000D03*
X144000000Y-99800000D03*
X144000000Y-106690000D03*
X144000000Y-108800000D03*
X144000000Y-115690000D03*
X144000000Y-117800000D03*
X144000000Y-124690000D03*
X144000000Y-126800000D03*
X144000000Y-133690000D03*
X144000000Y-135800000D03*
X144000000Y-142690000D03*
X144000000Y-144800000D03*
X150000000Y-81700000D03*
X150000000Y-84000000D03*
X150000000Y-90700000D03*
X150000000Y-93000000D03*
X150000000Y-99700000D03*
X150000000Y-102000000D03*
X150000000Y-108700000D03*
X150000000Y-111000000D03*
X150000000Y-117700000D03*
X150000000Y-120000000D03*
X150000000Y-126700000D03*
X150000000Y-129000000D03*
X150000000Y-135700000D03*
X150000000Y-138000000D03*
X150000000Y-144700000D03*
X150000000Y-147000000D03*
X153000000Y-79690000D03*
X153000000Y-81800000D03*
X153000000Y-88690000D03*
X153000000Y-90800000D03*
X153000000Y-97690000D03*
X153000000Y-99800000D03*
X153000000Y-106690000D03*
X153000000Y-108800000D03*
X153000000Y-115690000D03*
X153000000Y-117800000D03*
X153000000Y-124690000D03*
X153000000Y-126800000D03*
X153000000Y-133690000D03*
X153000000Y-135800000D03*
X153000000Y-142690000D03*
X153000000Y-144800000D03*
X159000000Y-81700000D03*
X159000000Y-84000000D03*
X159000000Y-90700000D03*
X159000000Y-93000000D03*
X159000000Y-99700000D03*
X159000000Y-102000000D03*
X159000000Y-108700000D03*
X159000000Y-111000000D03*
X159000000Y-117700000D03*
X159000000Y-120000000D03*
X159000000Y-126700000D03*
X159000000Y-129000000D03*
X159000000Y-135700000D03*
X159000000Y-138000000D03*
X159000000Y-144700000D03*
X159000000Y-147000000D03*
X162000000Y-79690000D03*
X162000000Y-81800000D03*
X162000000Y-88690000D03*
X162000000Y-90800000D03*
X162000000Y-97690000D03*
X162000000Y-99800000D03*
X162000000Y-106690000D03*
X162000000Y-108800000D03*
X162000000Y-115690000D03*
X162000000Y-117800000D03*
X162000000Y-124690000D03*
X162000000Y-126800000D03*
X162000000Y-133690000D03*
X162000000Y-135800000D03*
X162000000Y-142690000D03*
X162000000Y-144800000D03*
X168000000Y-81700000D03*
X168000000Y-84000000D03*
X168000000Y-90700000D03*
X168000000Y-93000000D03*
X168000000Y-99700000D03*
X168000000Y-102000000D03*
X168000000Y-108700000D03*
X168000000Y-111000000D03*
X168000000Y-117700000D03*
X168000000Y-120000000D03*
X168000000Y-126700000D03*
X168000000Y-129000000D03*
X168000000Y-135700000D03*
X168000000Y-138000000D03*
X168000000Y-144700000D03*
X168000000Y-147000000D03*
X171000000Y-79690000D03*
X171000000Y-81800000D03*
X171000000Y-88690000D03*
X171000000Y-90800000D03*
X171000000Y-97690000D03*
X171000000Y-99800000D03*
X171000000Y-106690000D03*
X171000000Y-108800000D03*
X171000000Y-115690000D03*
X171000000Y-117800000D03*
X171000000Y-124690000D03*
X171000000Y-126800000D03*
X171000000Y-133690000D03*
X171000000Y-135800000D03*
X171000000Y-142690000D03*
X171000000Y-144800000D03*
X177000000Y-81700000D03*
X177000000Y-84000000D03*
X177000000Y-90700000D03*
X177000000Y-93000000D03*
X177000000Y-99700000D03*
X177000000Y-102000000D03*
X177000000Y-108700000D03*
X177000000Y-111000000D03*
X177000000Y-117700000D03*
X177000000Y-120000000D03*
X177000000Y-126700000D03*
X177000000Y-129000000D03*
X177000000Y-135700000D03*
X177000000Y-138000000D03*
X177000000Y-144700000D03*
X177000000Y-147000000D03*
X180000000Y-79690000D03*
X180000000Y-81800000D03*
X180000000Y-88690000D03*
X180000000Y-90800000D03*
X180000000Y-97690000D03*
X180000000Y-99800000D03*
X180000000Y-106690000D03*
X180000000Y-108800000D03*
X180000000Y-115690000D03*
X180000000Y-117800000D03*
X180000000Y-124690000D03*
X180000000Y-126800000D03*
X180000000Y-133690000D03*
X180000000Y-135800000D03*
X180000000Y-142690000D03*
X180000000Y-144800000D03*
X186000000Y-81700000D03*
X186000000Y-84000000D03*
X186000000Y-90700000D03*
X186000000Y-93000000D03*
X186000000Y-99700000D03*
X186000000Y-102000000D03*
X186000000Y-108700000D03*
X186000000Y-111000000D03*
X186000000Y-117700000D03*
X186000000Y-120000000D03*
X186000000Y-126700000D03*
X186000000Y-129000000D03*
X186000000Y-135700000D03*
X186000000Y-138000000D03*
X186000000Y-144700000D03*
X186000000Y-147000000D03*
X189000000Y-79690000D03*
X189000000Y-81800000D03*
X189000000Y-88690000D03*
X189000000Y-90800000D03*
X189000000Y-97690000D03*
X189000000Y-99800000D03*
X189000000Y-106690000D03*
X189000000Y-108800000D03*
X189000000Y-115690000D03*
X189000000Y-117800000D03*
X189000000Y-124690000D03*
X189000000Y-126800000D03*
X189000000Y-133690000D03*
X189000000Y-135800000D03*
X189000000Y-142690000D03*
X189000000Y-144800000D03*
X195000000Y-81700000D03*
X195000000Y-84000000D03*
X195000000Y-90700000D03*
X195000000Y-93000000D03*
X195000000Y-99700000D03*
X195000000Y-102000000D03*
X195000000Y-108700000D03*
X195000000Y-111000000D03*
X195000000Y-117700000D03*
X195000000Y-120000000D03*
X195000000Y-126700000D03*
X195000000Y-129000000D03*
X195000000Y-135700000D03*
X195000000Y-138000000D03*
X195000000Y-144700000D03*
X195000000Y-147000000D03*
X198000000Y-79690000D03*
X198000000Y-81800000D03*
X198000000Y-88690000D03*
X198000000Y-90800000D03*
X198000000Y-97690000D03*
X198000000Y-99800000D03*
X198000000Y-106690000D03*
X198000000Y-108800000D03*
X198000000Y-115690000D03*
X198000000Y-117800000D03*
X198000000Y-124690000D03*
X198000000Y-126800000D03*
X198000000Y-133690000D03*
X198000000Y-135800000D03*
X198000000Y-142690000D03*
X198000000Y-144800000D03*
X204000000Y-81700000D03*
X204000000Y-84000000D03*
X204000000Y-90700000D03*
X204000000Y-93000000D03*
X204000000Y-99700000D03*
X204000000Y-102000000D03*
X204000000Y-108700000D03*
X204000000Y-111000000D03*
X204000000Y-117700000D03*
X204000000Y-120000000D03*
X204000000Y-126700000D03*
X204000000Y-129000000D03*
X204000000Y-135700000D03*
X204000000Y-138000000D03*
X204000000Y-144700000D03*
X204000000Y-147000000D03*
X207000000Y-79690000D03*
X207000000Y-81800000D03*
X207000000Y-88690000D03*
X207000000Y-90800000D03*
X207000000Y-97690000D03*
X207000000Y-99800000D03*
X207000000Y-106690000D03*
X207000000Y-108800000D03*
X207000000Y-115690000D03*
X207000000Y-117800000D03*
X207000000Y-124690000D03*
X207000000Y-126800000D03*
X207000000Y-133690000D03*
X207000000Y-135800000D03*
X207000000Y-142690000D03*
X207000000Y-144800000D03*
D12*
%TO.C,J1*%
X120565000Y-38465800D03*
X120565000Y-46215800D03*
X191435000Y-38465800D03*
X191435000Y-46215800D03*
D13*
%TO.C,M3*%
X84980000Y-113090000D03*
X155860000Y-163020000D03*
X226740000Y-113090000D03*
M02*
