%TF.GenerationSoftware,KiCad,Pcbnew,10.0.3*%
%TF.CreationDate,2026-08-17T13:27:07-05:00*%
%TF.ProjectId,led_board,6c65645f-626f-4617-9264-2e6b69636164,rev?*%
%TF.SameCoordinates,Original*%
%TF.FileFunction,Soldermask,Top*%
%TF.FilePolarity,Negative*%
%FSLAX46Y46*%
G04 Gerber Fmt 4.6, Leading zero omitted, Abs format (unit mm)*
G04 Created by KiCad (PCBNEW 10.0.3) date 2026-08-17 13:27:07*
%MOMM*%
%LPD*%
G01*
G04 APERTURE LIST*
G04 Aperture macros list*
%AMRoundRect*
0 Rectangle with rounded corners*
0 $1 Rounding radius*
0 $2 $3 $4 $5 $6 $7 $8 $9 X,Y pos of 4 corners*
0 Add a 4 corners polygon primitive as box body*
4,1,4,$2,$3,$4,$5,$6,$7,$8,$9,$2,$3,0*
0 Add four circle primitives for the rounded corners*
1,1,$1+$1,$2,$3*
1,1,$1+$1,$4,$5*
1,1,$1+$1,$6,$7*
1,1,$1+$1,$8,$9*
0 Add four rect primitives between the rounded corners*
20,1,$1+$1,$2,$3,$4,$5,0*
20,1,$1+$1,$4,$5,$6,$7,0*
20,1,$1+$1,$6,$7,$8,$9,0*
20,1,$1+$1,$8,$9,$2,$3,0*%
%AMFreePoly0*
4,1,9,0.460000,0.575000,0.570000,0.575000,0.570000,-0.575000,0.460000,-0.575000,0.460000,-1.050000,-0.460000,-1.050000,-0.460000,1.050000,0.460000,1.050000,0.460000,0.575000,0.460000,0.575000,$1*%
%AMFreePoly1*
4,1,9,0.575000,1.060000,1.050000,1.060000,1.050000,-1.060000,-1.050000,-1.060000,-1.050000,1.060000,-0.575000,1.060000,-0.575000,1.180000,0.575000,1.180000,0.575000,1.060000,0.575000,1.060000,$1*%
G04 Aperture macros list end*
%ADD10C,7.000000*%
%ADD11C,3.900000*%
%ADD12FreePoly0,90.000000*%
%ADD13FreePoly1,180.000000*%
%ADD14RoundRect,0.315000X-0.735000X0.785000X-0.735000X-0.785000X0.735000X-0.785000X0.735000X0.785000X0*%
%ADD15RoundRect,0.187500X-0.862500X0.437500X-0.862500X-0.437500X0.862500X-0.437500X0.862500X0.437500X0*%
%ADD16C,1.270000*%
%ADD17O,1.044000X0.844000*%
%ADD18C,1.914000*%
G04 APERTURE END LIST*
D10*
%TO.C,M3*%
X84980000Y-113090000D03*
D11*
X84980000Y-113090000D03*
%TD*%
%TO.C,M3*%
X226740000Y-113090000D03*
D10*
X226740000Y-113090000D03*
%TD*%
D11*
%TO.C,M3*%
X155860000Y-163020000D03*
D10*
X155860000Y-163020000D03*
%TD*%
D12*
%TO.C,D192*%
X108000000Y-106690000D03*
D13*
X108000000Y-108710000D03*
%TD*%
D12*
%TO.C,D191*%
X108000000Y-97690000D03*
D13*
X108000000Y-99710000D03*
%TD*%
D12*
%TO.C,D190*%
X108000000Y-88690000D03*
D13*
X108000000Y-90710000D03*
%TD*%
D12*
%TO.C,D189*%
X108000000Y-79690000D03*
D13*
X108000000Y-81710000D03*
%TD*%
D12*
%TO.C,D188*%
X135000000Y-133690000D03*
D13*
X135000000Y-135710000D03*
%TD*%
D12*
%TO.C,D187*%
X135000000Y-142690000D03*
D13*
X135000000Y-144710000D03*
%TD*%
D12*
%TO.C,D186*%
X135000000Y-115690000D03*
D13*
X135000000Y-117710000D03*
%TD*%
D12*
%TO.C,D185*%
X135000000Y-124690000D03*
D13*
X135000000Y-126710000D03*
%TD*%
D12*
%TO.C,D184*%
X144000000Y-106690000D03*
D13*
X144000000Y-108710000D03*
%TD*%
D12*
%TO.C,D183*%
X144000000Y-97690000D03*
D13*
X144000000Y-99710000D03*
%TD*%
D12*
%TO.C,D182*%
X144000000Y-88690000D03*
D13*
X144000000Y-90710000D03*
%TD*%
D12*
%TO.C,D181*%
X144000000Y-79690000D03*
D13*
X144000000Y-81710000D03*
%TD*%
D12*
%TO.C,D180*%
X171000000Y-133690000D03*
D13*
X171000000Y-135710000D03*
%TD*%
D12*
%TO.C,D179*%
X171000000Y-142690000D03*
D13*
X171000000Y-144710000D03*
%TD*%
D12*
%TO.C,D178*%
X171000000Y-115690000D03*
D13*
X171000000Y-117710000D03*
%TD*%
D12*
%TO.C,D177*%
X171000000Y-124690000D03*
D13*
X171000000Y-126710000D03*
%TD*%
D12*
%TO.C,D176*%
X180000000Y-106690000D03*
D13*
X180000000Y-108710000D03*
%TD*%
D12*
%TO.C,D175*%
X180000000Y-97690000D03*
D13*
X180000000Y-99710000D03*
%TD*%
D12*
%TO.C,D174*%
X180000000Y-88690000D03*
D13*
X180000000Y-90710000D03*
%TD*%
D12*
%TO.C,D173*%
X180000000Y-79690000D03*
D13*
X180000000Y-81710000D03*
%TD*%
D12*
%TO.C,D172*%
X207000000Y-133690000D03*
D13*
X207000000Y-135710000D03*
%TD*%
D12*
%TO.C,D171*%
X207000000Y-142690000D03*
D13*
X207000000Y-144710000D03*
%TD*%
D12*
%TO.C,D170*%
X207000000Y-115690000D03*
D13*
X207000000Y-117710000D03*
%TD*%
D12*
%TO.C,D169*%
X207000000Y-124690000D03*
D13*
X207000000Y-126710000D03*
%TD*%
D12*
%TO.C,D168*%
X108000000Y-142690000D03*
D13*
X108000000Y-144710000D03*
%TD*%
D12*
%TO.C,D167*%
X108000000Y-133690000D03*
D13*
X108000000Y-135710000D03*
%TD*%
D12*
%TO.C,D166*%
X108000000Y-124690000D03*
D13*
X108000000Y-126710000D03*
%TD*%
D12*
%TO.C,D165*%
X108000000Y-115690000D03*
D13*
X108000000Y-117710000D03*
%TD*%
D12*
%TO.C,D164*%
X135000000Y-97690000D03*
D13*
X135000000Y-99710000D03*
%TD*%
D12*
%TO.C,D163*%
X135000000Y-106690000D03*
D13*
X135000000Y-108710000D03*
%TD*%
D12*
%TO.C,D162*%
X135000000Y-79690000D03*
D13*
X135000000Y-81710000D03*
%TD*%
D12*
%TO.C,D161*%
X135000000Y-88690000D03*
D13*
X135000000Y-90710000D03*
%TD*%
D12*
%TO.C,D160*%
X144000000Y-142690000D03*
D13*
X144000000Y-144710000D03*
%TD*%
D12*
%TO.C,D159*%
X144000000Y-133690000D03*
D13*
X144000000Y-135710000D03*
%TD*%
D12*
%TO.C,D158*%
X144000000Y-124690000D03*
D13*
X144000000Y-126710000D03*
%TD*%
D12*
%TO.C,D157*%
X144000000Y-115690000D03*
D13*
X144000000Y-117710000D03*
%TD*%
D12*
%TO.C,D156*%
X171000000Y-97690000D03*
D13*
X171000000Y-99710000D03*
%TD*%
D12*
%TO.C,D155*%
X171000000Y-106690000D03*
D13*
X171000000Y-108710000D03*
%TD*%
D12*
%TO.C,D154*%
X171000000Y-79690000D03*
D13*
X171000000Y-81710000D03*
%TD*%
D12*
%TO.C,D153*%
X171000000Y-88690000D03*
D13*
X171000000Y-90710000D03*
%TD*%
D12*
%TO.C,D152*%
X180000000Y-142690000D03*
D13*
X180000000Y-144710000D03*
%TD*%
D12*
%TO.C,D151*%
X180000000Y-133690000D03*
D13*
X180000000Y-135710000D03*
%TD*%
D12*
%TO.C,D150*%
X180000000Y-124690000D03*
D13*
X180000000Y-126710000D03*
%TD*%
D12*
%TO.C,D149*%
X180000000Y-115690000D03*
D13*
X180000000Y-117710000D03*
%TD*%
D12*
%TO.C,D148*%
X207000000Y-97690000D03*
D13*
X207000000Y-99710000D03*
%TD*%
D12*
%TO.C,D147*%
X207000000Y-106690000D03*
D13*
X207000000Y-108710000D03*
%TD*%
D12*
%TO.C,D146*%
X207000000Y-79690000D03*
D13*
X207000000Y-81710000D03*
%TD*%
D12*
%TO.C,D145*%
X207000000Y-88690000D03*
D13*
X207000000Y-90710000D03*
%TD*%
D12*
%TO.C,D144*%
X117000000Y-106690000D03*
D13*
X117000000Y-108710000D03*
%TD*%
D12*
%TO.C,D143*%
X117000000Y-97690000D03*
D13*
X117000000Y-99710000D03*
%TD*%
D12*
%TO.C,D142*%
X117000000Y-88690000D03*
D13*
X117000000Y-90710000D03*
%TD*%
D12*
%TO.C,D141*%
X117000000Y-79690000D03*
D13*
X117000000Y-81710000D03*
%TD*%
D12*
%TO.C,D140*%
X126000000Y-133690000D03*
D13*
X126000000Y-135710000D03*
%TD*%
D12*
%TO.C,D139*%
X126000000Y-142690000D03*
D13*
X126000000Y-144710000D03*
%TD*%
D12*
%TO.C,D138*%
X126000000Y-115690000D03*
D13*
X126000000Y-117710000D03*
%TD*%
D12*
%TO.C,D137*%
X126000000Y-124690000D03*
D13*
X126000000Y-126710000D03*
%TD*%
D12*
%TO.C,D136*%
X153000000Y-106690000D03*
D13*
X153000000Y-108710000D03*
%TD*%
D12*
%TO.C,D135*%
X153000000Y-97690000D03*
D13*
X153000000Y-99710000D03*
%TD*%
D12*
%TO.C,D134*%
X153000000Y-88690000D03*
D13*
X153000000Y-90710000D03*
%TD*%
D12*
%TO.C,D133*%
X153000000Y-79690000D03*
D13*
X153000000Y-81710000D03*
%TD*%
D12*
%TO.C,D132*%
X162000000Y-142690000D03*
D13*
X162000000Y-144710000D03*
%TD*%
D12*
%TO.C,D131*%
X162000000Y-133690000D03*
D13*
X162000000Y-135710000D03*
%TD*%
D12*
%TO.C,D130*%
X162000000Y-115690000D03*
D13*
X162000000Y-117710000D03*
%TD*%
D12*
%TO.C,D129*%
X162000000Y-124690000D03*
D13*
X162000000Y-126710000D03*
%TD*%
D12*
%TO.C,D128*%
X189000000Y-106690000D03*
D13*
X189000000Y-108710000D03*
%TD*%
D12*
%TO.C,D127*%
X189000000Y-97690000D03*
D13*
X189000000Y-99710000D03*
%TD*%
D12*
%TO.C,D126*%
X189000000Y-88690000D03*
D13*
X189000000Y-90710000D03*
%TD*%
D12*
%TO.C,D125*%
X189000000Y-79690000D03*
D13*
X189000000Y-81710000D03*
%TD*%
D12*
%TO.C,D124*%
X198000000Y-133690000D03*
D13*
X198000000Y-135710000D03*
%TD*%
D12*
%TO.C,D123*%
X198000000Y-142690000D03*
D13*
X198000000Y-144710000D03*
%TD*%
D12*
%TO.C,D122*%
X198000000Y-115690000D03*
D13*
X198000000Y-117710000D03*
%TD*%
D12*
%TO.C,D121*%
X198000000Y-124690000D03*
D13*
X198000000Y-126710000D03*
%TD*%
D12*
%TO.C,D120*%
X117000000Y-142690000D03*
D13*
X117000000Y-144710000D03*
%TD*%
D12*
%TO.C,D119*%
X117000000Y-133690000D03*
D13*
X117000000Y-135710000D03*
%TD*%
D12*
%TO.C,D118*%
X117000000Y-124690000D03*
D13*
X117000000Y-126710000D03*
%TD*%
D12*
%TO.C,D117*%
X117000000Y-115690000D03*
D13*
X117000000Y-117710000D03*
%TD*%
D12*
%TO.C,D116*%
X126000000Y-97690000D03*
D13*
X126000000Y-99710000D03*
%TD*%
D12*
%TO.C,D115*%
X126000000Y-106690000D03*
D13*
X126000000Y-108710000D03*
%TD*%
D12*
%TO.C,D114*%
X126000000Y-79690000D03*
D13*
X126000000Y-81710000D03*
%TD*%
D12*
%TO.C,D113*%
X126000000Y-88690000D03*
D13*
X126000000Y-90710000D03*
%TD*%
D12*
%TO.C,D112*%
X153000000Y-142690000D03*
D13*
X153000000Y-144710000D03*
%TD*%
D12*
%TO.C,D111*%
X153000000Y-133690000D03*
D13*
X153000000Y-135710000D03*
%TD*%
D12*
%TO.C,D110*%
X153000000Y-124690000D03*
D13*
X153000000Y-126710000D03*
%TD*%
D12*
%TO.C,D109*%
X153000000Y-115690000D03*
D13*
X153000000Y-117710000D03*
%TD*%
D12*
%TO.C,D108*%
X162000000Y-97690000D03*
D13*
X162000000Y-99710000D03*
%TD*%
D12*
%TO.C,D107*%
X162000000Y-106690000D03*
D13*
X162000000Y-108710000D03*
%TD*%
D12*
%TO.C,D106*%
X162000000Y-79690000D03*
D13*
X162000000Y-81710000D03*
%TD*%
D12*
%TO.C,D105*%
X162000000Y-88690000D03*
D13*
X162000000Y-90710000D03*
%TD*%
D12*
%TO.C,D104*%
X189000000Y-142690000D03*
D13*
X189000000Y-144710000D03*
%TD*%
D12*
%TO.C,D103*%
X189000000Y-133690000D03*
D13*
X189000000Y-135710000D03*
%TD*%
D12*
%TO.C,D102*%
X189000000Y-124690000D03*
D13*
X189000000Y-126710000D03*
%TD*%
D12*
%TO.C,D101*%
X189000000Y-115690000D03*
D13*
X189000000Y-117710000D03*
%TD*%
D12*
%TO.C,D100*%
X198000000Y-97690000D03*
D13*
X198000000Y-99710000D03*
%TD*%
D12*
%TO.C,D99*%
X198000000Y-106690000D03*
D13*
X198000000Y-108710000D03*
%TD*%
D12*
%TO.C,D98*%
X198000000Y-79690000D03*
D13*
X198000000Y-81710000D03*
%TD*%
D12*
%TO.C,D97*%
X198000000Y-88690000D03*
D13*
X198000000Y-90710000D03*
%TD*%
D14*
%TO.C,D66*%
X132000000Y-81700000D03*
D15*
X132000000Y-83875000D03*
%TD*%
D14*
%TO.C,D18*%
X123000000Y-81700000D03*
D15*
X123000000Y-83875000D03*
%TD*%
D14*
%TO.C,D21*%
X114000000Y-117700000D03*
D15*
X114000000Y-119875000D03*
%TD*%
D14*
%TO.C,D22*%
X114000000Y-126700000D03*
D15*
X114000000Y-128875000D03*
%TD*%
D14*
%TO.C,D55*%
X177000000Y-135700000D03*
D15*
X177000000Y-137875000D03*
%TD*%
D14*
%TO.C,D75*%
X204000000Y-144700000D03*
D15*
X204000000Y-146875000D03*
%TD*%
D14*
%TO.C,D35*%
X159000000Y-135700000D03*
D15*
X159000000Y-137875000D03*
%TD*%
D14*
%TO.C,D56*%
X177000000Y-144700000D03*
D15*
X177000000Y-146875000D03*
%TD*%
D14*
%TO.C,D59*%
X168000000Y-108700000D03*
D15*
X168000000Y-110875000D03*
%TD*%
D14*
%TO.C,D31*%
X186000000Y-99700000D03*
D15*
X186000000Y-101875000D03*
%TD*%
D14*
%TO.C,D51*%
X204000000Y-108700000D03*
D15*
X204000000Y-110875000D03*
%TD*%
D14*
%TO.C,D53*%
X177000000Y-117700000D03*
D15*
X177000000Y-119875000D03*
%TD*%
D14*
%TO.C,D41*%
X123000000Y-126700000D03*
D15*
X123000000Y-128875000D03*
%TD*%
D14*
%TO.C,D68*%
X132000000Y-99700000D03*
D15*
X132000000Y-101875000D03*
%TD*%
D14*
%TO.C,D58*%
X168000000Y-81700000D03*
D15*
X168000000Y-83875000D03*
%TD*%
D14*
%TO.C,D13*%
X150000000Y-117700000D03*
D15*
X150000000Y-119875000D03*
%TD*%
D14*
%TO.C,D1*%
X195000000Y-90700000D03*
D15*
X195000000Y-92875000D03*
%TD*%
D14*
%TO.C,D57*%
X168000000Y-90700000D03*
D15*
X168000000Y-92875000D03*
%TD*%
D14*
%TO.C,D26*%
X195000000Y-117700000D03*
D15*
X195000000Y-119875000D03*
%TD*%
D14*
%TO.C,D92*%
X132000000Y-135700000D03*
D15*
X132000000Y-137875000D03*
%TD*%
D16*
%TO.C,J1*%
X121585000Y-41082000D03*
X190415000Y-41082000D03*
D17*
X186785000Y-40320000D03*
X185515000Y-40320000D03*
X184245000Y-40320000D03*
X182975000Y-40320000D03*
X181705000Y-40320000D03*
X180435000Y-40320000D03*
X179165000Y-40320000D03*
X177895000Y-40320000D03*
X176625000Y-40320000D03*
X175355000Y-40320000D03*
X174085000Y-40320000D03*
X172815000Y-40320000D03*
X171545000Y-40320000D03*
X170275000Y-40320000D03*
X169005000Y-40320000D03*
X167735000Y-40320000D03*
X166465000Y-40320000D03*
X165195000Y-40320000D03*
X163925000Y-40320000D03*
X162655000Y-40320000D03*
X161385000Y-40320000D03*
X160115000Y-40320000D03*
X158845000Y-40320000D03*
X157575000Y-40320000D03*
X156305000Y-40320000D03*
X155035000Y-40320000D03*
X153765000Y-40320000D03*
X152495000Y-40320000D03*
X151225000Y-40320000D03*
X149955000Y-40320000D03*
X148685000Y-40320000D03*
X147415000Y-40320000D03*
X146145000Y-40320000D03*
X144875000Y-40320000D03*
X143605000Y-40320000D03*
X142335000Y-40320000D03*
X141065000Y-40320000D03*
X139795000Y-40320000D03*
X138525000Y-40320000D03*
X137255000Y-40320000D03*
X135985000Y-40320000D03*
X134715000Y-40320000D03*
X133445000Y-40320000D03*
X132175000Y-40320000D03*
X130905000Y-40320000D03*
X129635000Y-40320000D03*
X128365000Y-40320000D03*
X127095000Y-40320000D03*
X125825000Y-40320000D03*
X124555000Y-40320000D03*
X186785000Y-42479000D03*
X185515000Y-42479000D03*
X184245000Y-42479000D03*
X182975000Y-42479000D03*
X181705000Y-42479000D03*
X180435000Y-42479000D03*
X179165000Y-42479000D03*
X177895000Y-42479000D03*
X176625000Y-42479000D03*
X175355000Y-42479000D03*
X174085000Y-42479000D03*
X172815000Y-42479000D03*
X171545000Y-42479000D03*
X170275000Y-42479000D03*
X169005000Y-42479000D03*
X167735000Y-42479000D03*
X166465000Y-42479000D03*
X165195000Y-42479000D03*
X163925000Y-42479000D03*
X162655000Y-42479000D03*
X161385000Y-42479000D03*
X160115000Y-42479000D03*
X158845000Y-42479000D03*
X157575000Y-42479000D03*
X156305000Y-42479000D03*
X155035000Y-42479000D03*
X153765000Y-42479000D03*
X152495000Y-42479000D03*
X151225000Y-42479000D03*
X149955000Y-42479000D03*
X148685000Y-42479000D03*
X147415000Y-42479000D03*
X146145000Y-42479000D03*
X144875000Y-42479000D03*
X143605000Y-42479000D03*
X142335000Y-42479000D03*
X141065000Y-42479000D03*
X139795000Y-42479000D03*
X138525000Y-42479000D03*
X137255000Y-42479000D03*
X135985000Y-42479000D03*
X134715000Y-42479000D03*
X133445000Y-42479000D03*
X132175000Y-42479000D03*
X130905000Y-42479000D03*
X129635000Y-42479000D03*
X128365000Y-42479000D03*
X127095000Y-42479000D03*
X125825000Y-42479000D03*
X124555000Y-42479000D03*
X186785000Y-43749000D03*
X185515000Y-43749000D03*
X184245000Y-43749000D03*
X182975000Y-43749000D03*
X181705000Y-43749000D03*
X180435000Y-43749000D03*
X179165000Y-43749000D03*
X177895000Y-43749000D03*
X176625000Y-43749000D03*
X175355000Y-43749000D03*
X174085000Y-43749000D03*
X172815000Y-43749000D03*
X171545000Y-43749000D03*
X170275000Y-43749000D03*
X169005000Y-43749000D03*
X167735000Y-43749000D03*
X166465000Y-43749000D03*
X165195000Y-43749000D03*
X163925000Y-43749000D03*
X162655000Y-43749000D03*
X161385000Y-43749000D03*
X160115000Y-43749000D03*
X158845000Y-43749000D03*
X157575000Y-43749000D03*
X156305000Y-43749000D03*
X155035000Y-43749000D03*
X153765000Y-43749000D03*
X152495000Y-43749000D03*
X151225000Y-43749000D03*
X149955000Y-43749000D03*
X148685000Y-43749000D03*
X147415000Y-43749000D03*
X146145000Y-43749000D03*
X144875000Y-43749000D03*
X143605000Y-43749000D03*
X142335000Y-43749000D03*
X141065000Y-43749000D03*
X139795000Y-43749000D03*
X138525000Y-43749000D03*
X137255000Y-43749000D03*
X135985000Y-43749000D03*
X134715000Y-43749000D03*
X133445000Y-43749000D03*
X132175000Y-43749000D03*
X130905000Y-43749000D03*
X129635000Y-43749000D03*
X128365000Y-43749000D03*
X127095000Y-43749000D03*
X125825000Y-43749000D03*
X124555000Y-43749000D03*
X186785000Y-45019000D03*
X185515000Y-45019000D03*
X184245000Y-45019000D03*
X182975000Y-45019000D03*
X181705000Y-45019000D03*
X180435000Y-45019000D03*
X179165000Y-45019000D03*
X177895000Y-45019000D03*
X176625000Y-45019000D03*
X175355000Y-45019000D03*
X174085000Y-45019000D03*
X172815000Y-45019000D03*
X171545000Y-45019000D03*
X170275000Y-45019000D03*
X169005000Y-45019000D03*
X167735000Y-45019000D03*
X166465000Y-45019000D03*
X165195000Y-45019000D03*
X163925000Y-45019000D03*
X162655000Y-45019000D03*
X161385000Y-45019000D03*
X160115000Y-45019000D03*
X158845000Y-45019000D03*
X157575000Y-45019000D03*
X156305000Y-45019000D03*
X155035000Y-45019000D03*
X153765000Y-45019000D03*
X152495000Y-45019000D03*
X151225000Y-45019000D03*
X149955000Y-45019000D03*
X148685000Y-45019000D03*
X147415000Y-45019000D03*
X146145000Y-45019000D03*
X144875000Y-45019000D03*
X143605000Y-45019000D03*
X142335000Y-45019000D03*
X141065000Y-45019000D03*
X139795000Y-45019000D03*
X138525000Y-45019000D03*
X137255000Y-45019000D03*
X135985000Y-45019000D03*
X134715000Y-45019000D03*
X133445000Y-45019000D03*
X132175000Y-45019000D03*
X130905000Y-45019000D03*
X129635000Y-45019000D03*
X128365000Y-45019000D03*
X127095000Y-45019000D03*
X125825000Y-45019000D03*
X124555000Y-45019000D03*
X186785000Y-46289000D03*
X185515000Y-46289000D03*
X184245000Y-46289000D03*
X182975000Y-46289000D03*
X181705000Y-46289000D03*
X180435000Y-46289000D03*
X179165000Y-46289000D03*
X177895000Y-46289000D03*
X176625000Y-46289000D03*
X175355000Y-46289000D03*
X174085000Y-46289000D03*
X172815000Y-46289000D03*
X171545000Y-46289000D03*
X170275000Y-46289000D03*
X169005000Y-46289000D03*
X167735000Y-46289000D03*
X166465000Y-46289000D03*
X165195000Y-46289000D03*
X163925000Y-46289000D03*
X162655000Y-46289000D03*
X161385000Y-46289000D03*
X160115000Y-46289000D03*
X158845000Y-46289000D03*
X157575000Y-46289000D03*
X156305000Y-46289000D03*
X155035000Y-46289000D03*
X153765000Y-46289000D03*
X152495000Y-46289000D03*
X151225000Y-46289000D03*
X149955000Y-46289000D03*
X148685000Y-46289000D03*
X147415000Y-46289000D03*
X146145000Y-46289000D03*
X144875000Y-46289000D03*
X143605000Y-46289000D03*
X142335000Y-46289000D03*
X141065000Y-46289000D03*
X139795000Y-46289000D03*
X138525000Y-46289000D03*
X137255000Y-46289000D03*
X135985000Y-46289000D03*
X134715000Y-46289000D03*
X133445000Y-46289000D03*
X132175000Y-46289000D03*
X130905000Y-46289000D03*
X129635000Y-46289000D03*
X128365000Y-46289000D03*
X127095000Y-46289000D03*
X125825000Y-46289000D03*
X124555000Y-46289000D03*
X186785000Y-47559000D03*
X185515000Y-47559000D03*
X184245000Y-47559000D03*
X182975000Y-47559000D03*
X181705000Y-47559000D03*
X180435000Y-47559000D03*
X179165000Y-47559000D03*
X177895000Y-47559000D03*
X176625000Y-47559000D03*
X175355000Y-47559000D03*
X174085000Y-47559000D03*
X172815000Y-47559000D03*
X171545000Y-47559000D03*
X170275000Y-47559000D03*
X169005000Y-47559000D03*
X167735000Y-47559000D03*
X166465000Y-47559000D03*
X165195000Y-47559000D03*
X163925000Y-47559000D03*
X162655000Y-47559000D03*
X161385000Y-47559000D03*
X160115000Y-47559000D03*
X158845000Y-47559000D03*
X157575000Y-47559000D03*
X156305000Y-47559000D03*
X155035000Y-47559000D03*
X153765000Y-47559000D03*
X152495000Y-47559000D03*
X151225000Y-47559000D03*
X149955000Y-47559000D03*
X148685000Y-47559000D03*
X147415000Y-47559000D03*
X146145000Y-47559000D03*
X144875000Y-47559000D03*
X143605000Y-47559000D03*
X142335000Y-47559000D03*
X141065000Y-47559000D03*
X139795000Y-47559000D03*
X138525000Y-47559000D03*
X137255000Y-47559000D03*
X135985000Y-47559000D03*
X134715000Y-47559000D03*
X133445000Y-47559000D03*
X132175000Y-47559000D03*
X130905000Y-47559000D03*
X129635000Y-47559000D03*
X128365000Y-47559000D03*
X127095000Y-47559000D03*
X125825000Y-47559000D03*
X124555000Y-47559000D03*
D18*
X120565000Y-38465800D03*
X120565000Y-46215800D03*
X191435000Y-46215800D03*
X191435000Y-38465800D03*
%TD*%
D14*
%TO.C,D84*%
X168000000Y-135700000D03*
D15*
X168000000Y-137875000D03*
%TD*%
D14*
%TO.C,D25*%
X195000000Y-126700000D03*
D15*
X195000000Y-128875000D03*
%TD*%
D14*
%TO.C,D88*%
X141000000Y-108700000D03*
D15*
X141000000Y-110875000D03*
%TD*%
D14*
%TO.C,D23*%
X114000000Y-135700000D03*
D15*
X114000000Y-137875000D03*
%TD*%
D14*
%TO.C,D42*%
X123000000Y-117700000D03*
D15*
X123000000Y-119875000D03*
%TD*%
D14*
%TO.C,D27*%
X195000000Y-144700000D03*
D15*
X195000000Y-146875000D03*
%TD*%
D14*
%TO.C,D64*%
X141000000Y-144700000D03*
D15*
X141000000Y-146875000D03*
%TD*%
D14*
%TO.C,D40*%
X150000000Y-108700000D03*
D15*
X150000000Y-110875000D03*
%TD*%
D14*
%TO.C,D50*%
X204000000Y-81700000D03*
D15*
X204000000Y-83875000D03*
%TD*%
D14*
%TO.C,D61*%
X141000000Y-117700000D03*
D15*
X141000000Y-119875000D03*
%TD*%
D14*
%TO.C,D34*%
X159000000Y-117700000D03*
D15*
X159000000Y-119875000D03*
%TD*%
D14*
%TO.C,D67*%
X132000000Y-108700000D03*
D15*
X132000000Y-110875000D03*
%TD*%
D14*
%TO.C,D17*%
X123000000Y-90700000D03*
D15*
X123000000Y-92875000D03*
%TD*%
D14*
%TO.C,D32*%
X186000000Y-108700000D03*
D15*
X186000000Y-110875000D03*
%TD*%
D14*
%TO.C,D19*%
X123000000Y-108700000D03*
D15*
X123000000Y-110875000D03*
%TD*%
D14*
%TO.C,D8*%
X186000000Y-144700000D03*
D15*
X186000000Y-146875000D03*
%TD*%
D14*
%TO.C,D78*%
X177000000Y-90700000D03*
D15*
X177000000Y-92875000D03*
%TD*%
D14*
%TO.C,D85*%
X141000000Y-81700000D03*
D15*
X141000000Y-83875000D03*
%TD*%
D14*
%TO.C,D38*%
X150000000Y-90700000D03*
D15*
X150000000Y-92875000D03*
%TD*%
D14*
%TO.C,D30*%
X186000000Y-90700000D03*
D15*
X186000000Y-92875000D03*
%TD*%
D14*
%TO.C,D28*%
X195000000Y-135700000D03*
D15*
X195000000Y-137875000D03*
%TD*%
D14*
%TO.C,D86*%
X141000000Y-90700000D03*
D15*
X141000000Y-92875000D03*
%TD*%
D14*
%TO.C,D46*%
X114000000Y-90700000D03*
D15*
X114000000Y-92875000D03*
%TD*%
D14*
%TO.C,D16*%
X150000000Y-144700000D03*
D15*
X150000000Y-146875000D03*
%TD*%
D14*
%TO.C,D5*%
X186000000Y-117700000D03*
D15*
X186000000Y-119875000D03*
%TD*%
D14*
%TO.C,D37*%
X150000000Y-81700000D03*
D15*
X150000000Y-83875000D03*
%TD*%
D14*
%TO.C,D65*%
X132000000Y-90700000D03*
D15*
X132000000Y-92875000D03*
%TD*%
D14*
%TO.C,D81*%
X168000000Y-126700000D03*
D15*
X168000000Y-128875000D03*
%TD*%
D14*
%TO.C,D7*%
X186000000Y-135700000D03*
D15*
X186000000Y-137875000D03*
%TD*%
D14*
%TO.C,D71*%
X105000000Y-135700000D03*
D15*
X105000000Y-137875000D03*
%TD*%
D14*
%TO.C,D69*%
X105000000Y-117700000D03*
D15*
X105000000Y-119875000D03*
%TD*%
D14*
%TO.C,D94*%
X105000000Y-90700000D03*
D15*
X105000000Y-92875000D03*
%TD*%
D14*
%TO.C,D80*%
X177000000Y-108700000D03*
D15*
X177000000Y-110875000D03*
%TD*%
D14*
%TO.C,D73*%
X204000000Y-126700000D03*
D15*
X204000000Y-128875000D03*
%TD*%
D14*
%TO.C,D63*%
X141000000Y-135700000D03*
D15*
X141000000Y-137875000D03*
%TD*%
D14*
%TO.C,D29*%
X186000000Y-81700000D03*
D15*
X186000000Y-83875000D03*
%TD*%
D14*
%TO.C,D45*%
X114000000Y-81700000D03*
D15*
X114000000Y-83875000D03*
%TD*%
D14*
%TO.C,D96*%
X105000000Y-108700000D03*
D15*
X105000000Y-110875000D03*
%TD*%
D14*
%TO.C,D39*%
X150000000Y-99700000D03*
D15*
X150000000Y-101875000D03*
%TD*%
D14*
%TO.C,D70*%
X105000000Y-126700000D03*
D15*
X105000000Y-128875000D03*
%TD*%
D14*
%TO.C,D48*%
X114000000Y-108700000D03*
D15*
X114000000Y-110875000D03*
%TD*%
D14*
%TO.C,D33*%
X159000000Y-126700000D03*
D15*
X159000000Y-128875000D03*
%TD*%
D14*
%TO.C,D47*%
X114000000Y-99700000D03*
D15*
X114000000Y-101875000D03*
%TD*%
D14*
%TO.C,D54*%
X177000000Y-126700000D03*
D15*
X177000000Y-128875000D03*
%TD*%
D14*
%TO.C,D72*%
X105000000Y-144700000D03*
D15*
X105000000Y-146875000D03*
%TD*%
D14*
%TO.C,D87*%
X141000000Y-99700000D03*
D15*
X141000000Y-101875000D03*
%TD*%
D14*
%TO.C,D11*%
X159000000Y-108700000D03*
D15*
X159000000Y-110875000D03*
%TD*%
D14*
%TO.C,D2*%
X195000000Y-81700000D03*
D15*
X195000000Y-83875000D03*
%TD*%
D14*
%TO.C,D3*%
X195000000Y-108700000D03*
D15*
X195000000Y-110875000D03*
%TD*%
D14*
%TO.C,D95*%
X105000000Y-99700000D03*
D15*
X105000000Y-101875000D03*
%TD*%
D14*
%TO.C,D14*%
X150000000Y-126700000D03*
D15*
X150000000Y-128875000D03*
%TD*%
D14*
%TO.C,D83*%
X168000000Y-144700000D03*
D15*
X168000000Y-146875000D03*
%TD*%
D14*
%TO.C,D44*%
X123000000Y-135700000D03*
D15*
X123000000Y-137875000D03*
%TD*%
D14*
%TO.C,D62*%
X141000000Y-126700000D03*
D15*
X141000000Y-128875000D03*
%TD*%
D14*
%TO.C,D43*%
X123000000Y-144700000D03*
D15*
X123000000Y-146875000D03*
%TD*%
D14*
%TO.C,D12*%
X159000000Y-99700000D03*
D15*
X159000000Y-101875000D03*
%TD*%
D14*
%TO.C,D77*%
X177000000Y-81700000D03*
D15*
X177000000Y-83875000D03*
%TD*%
D14*
%TO.C,D91*%
X132000000Y-144700000D03*
D15*
X132000000Y-146875000D03*
%TD*%
D14*
%TO.C,D10*%
X159000000Y-81700000D03*
D15*
X159000000Y-83875000D03*
%TD*%
D14*
%TO.C,D9*%
X159000000Y-90700000D03*
D15*
X159000000Y-92875000D03*
%TD*%
D14*
%TO.C,D90*%
X132000000Y-117700000D03*
D15*
X132000000Y-119875000D03*
%TD*%
D14*
%TO.C,D52*%
X204000000Y-99700000D03*
D15*
X204000000Y-101875000D03*
%TD*%
D14*
%TO.C,D20*%
X123000000Y-99700000D03*
D15*
X123000000Y-101875000D03*
%TD*%
D14*
%TO.C,D74*%
X204000000Y-117700000D03*
D15*
X204000000Y-119875000D03*
%TD*%
D14*
%TO.C,D36*%
X159000000Y-144700000D03*
D15*
X159000000Y-146875000D03*
%TD*%
D14*
%TO.C,D4*%
X195000000Y-99700000D03*
D15*
X195000000Y-101875000D03*
%TD*%
D14*
%TO.C,D93*%
X105000000Y-81700000D03*
D15*
X105000000Y-83875000D03*
%TD*%
D14*
%TO.C,D49*%
X204000000Y-90700000D03*
D15*
X204000000Y-92875000D03*
%TD*%
D14*
%TO.C,D24*%
X114000000Y-144700000D03*
D15*
X114000000Y-146875000D03*
%TD*%
D14*
%TO.C,D6*%
X186000000Y-126700000D03*
D15*
X186000000Y-128875000D03*
%TD*%
D14*
%TO.C,D76*%
X204000000Y-135700000D03*
D15*
X204000000Y-137875000D03*
%TD*%
D14*
%TO.C,D82*%
X168000000Y-117700000D03*
D15*
X168000000Y-119875000D03*
%TD*%
D14*
%TO.C,D60*%
X168000000Y-99700000D03*
D15*
X168000000Y-101875000D03*
%TD*%
D14*
%TO.C,D79*%
X177000000Y-99700000D03*
D15*
X177000000Y-101875000D03*
%TD*%
D14*
%TO.C,D89*%
X132000000Y-126700000D03*
D15*
X132000000Y-128875000D03*
%TD*%
D14*
%TO.C,D15*%
X150000000Y-135700000D03*
D15*
X150000000Y-137875000D03*
%TD*%
M02*
